<svg viewBox="0 0 500 500" xmlns="http://www.w3.org/2000/svg">
  <!-- Outer glow ring -->
  <circle cx="250" cy="250" r="230" fill="#EAF3DE" opacity="0.5"/>
  <circle cx="250" cy="250" r="200" fill="#C0DD97" opacity="0.3"/>

  <!-- Bowl shadow -->
  <ellipse cx="250" cy="370" rx="130" ry="22" fill="#3B6D11" opacity="0.12"/>

  <!-- Bowl body -->
  <ellipse cx="250" cy="290" rx="150" ry="40" fill="#EAF3DE"/>
  <path d="M100 260 Q110 360 250 375 Q390 360 400 260 Z" fill="#fff" stroke="#C0DD97" stroke-width="2"/>
  <path d="M100 260 Q110 360 250 375 Q390 360 400 260 Z" fill="#f8fef2" opacity="0.8"/>

  <!-- Bowl rim -->
  <ellipse cx="250" cy="260" rx="150" ry="40" fill="#EAF3DE" stroke="#C0DD97" stroke-width="2.5"/>

  <!-- Rice / grain base -->
  <ellipse cx="250" cy="255" rx="120" ry="28" fill="#f5f0e0"/>
  <ellipse cx="210" cy="252" rx="5" ry="3" fill="#e8e0c8" transform="rotate(20,210,252)"/>
  <ellipse cx="225" cy="248" rx="5" ry="3" fill="#e8e0c8" transform="rotate(-10,225,248)"/>
  <ellipse cx="240" cy="245" rx="5" ry="3" fill="#e8e0c8" transform="rotate(30,240,245)"/>
  <ellipse cx="260" cy="245" rx="5" ry="3" fill="#e8e0c8" transform="rotate(-20,260,245)"/>
  <ellipse cx="275" cy="249" rx="5" ry="3" fill="#e8e0c8" transform="rotate(15,275,249)"/>
  <ellipse cx="290" cy="254" rx="5" ry="3" fill="#e8e0c8" transform="rotate(-5,290,254)"/>
  <ellipse cx="195" cy="257" rx="5" ry="3" fill="#e8e0c8" transform="rotate(40,195,257)"/>
  <ellipse cx="305" cy="259" rx="5" ry="3" fill="#e8e0c8" transform="rotate(25,305,259)"/>

  <!-- Avocado slices -->
  <ellipse cx="210" cy="248" rx="28" ry="20" fill="#7BC47F" transform="rotate(-20,210,248)"/>
  <ellipse cx="210" cy="248" rx="20" ry="14" fill="#C5E8A0" transform="rotate(-20,210,248)"/>
  <ellipse cx="210" cy="248" rx="10" ry="8" fill="#8B6914" transform="rotate(-20,210,248)"/>

  <ellipse cx="240" cy="238" rx="24" ry="17" fill="#7BC47F" transform="rotate(10,240,238)"/>
  <ellipse cx="240" cy="238" rx="17" ry="12" fill="#C5E8A0" transform="rotate(10,240,238)"/>
  <ellipse cx="240" cy="238" rx="8" ry="7" fill="#8B6914" transform="rotate(10,240,238)"/>

  <!-- Cherry tomatoes -->
  <circle cx="295" cy="242" r="16" fill="#E85D5D"/>
  <circle cx="291" cy="238" r="5" fill="#FF8A8A" opacity="0.6"/>
  <path d="M295 226 Q298 220 302 222" stroke="#3B6D11" stroke-width="2" fill="none" stroke-linecap="round"/>

  <circle cx="320" cy="255" r="13" fill="#E85D5D"/>
  <circle cx="316" cy="251" r="4" fill="#FF8A8A" opacity="0.6"/>
  <path d="M320 242 Q323 236 327 238" stroke="#3B6D11" stroke-width="2" fill="none" stroke-linecap="round"/>

  <!-- Cucumber slices -->
  <ellipse cx="175" cy="258" rx="18" ry="18" fill="#5DBF6E"/>
  <ellipse cx="175" cy="258" rx="13" ry="13" fill="#A8E6B0"/>
  <ellipse cx="175" cy="258" rx="5" ry="5" fill="#C8F5CE"/>
  <line x1="175" y1="245" x2="175" y2="271" stroke="#5DBF6E" stroke-width="1" opacity="0.5"/>
  <line x1="162" y1="258" x2="188" y2="258" stroke="#5DBF6E" stroke-width="1" opacity="0.5"/>

  <!-- Leafy greens -->
  <path d="M270 235 Q290 210 310 225 Q295 240 270 235Z" fill="#4CAF50"/>
  <path d="M265 232 Q278 208 300 218 Q284 236 265 232Z" fill="#66BB6A"/>
  <path d="M255 242 Q260 218 282 222 Q272 244 255 242Z" fill="#81C784"/>

  <!-- Sesame seeds / garnish -->
  <ellipse cx="305" cy="270" rx="4" ry="2" fill="#F5DEB3" transform="rotate(30,305,270)"/>
  <ellipse cx="315" cy="265" rx="4" ry="2" fill="#F5DEB3" transform="rotate(-20,315,265)"/>
  <ellipse cx="198" cy="268" rx="4" ry="2" fill="#F5DEB3" transform="rotate(45,198,268)"/>
  <ellipse cx="185" cy="272" rx="4" ry="2" fill="#F5DEB3" transform="rotate(-30,185,272)"/>
  <ellipse cx="250" cy="275" rx="4" ry="2" fill="#F5DEB3" transform="rotate(10,250,275)"/>

  <!-- Lemon wedge -->
  <path d="M330 240 Q345 228 355 240 Q345 255 330 240Z" fill="#FFE066"/>
  <path d="M330 240 Q345 228 355 240" stroke="#FFD700" stroke-width="1" fill="none"/>
  <line x1="342" y1="229" x2="342" y2="252" stroke="#FFD700" stroke-width="0.8" opacity="0.6"/>

  <!-- Floating: herb sprig top left -->
  <circle cx="108" cy="155" r="36" fill="#EAF3DE" stroke="#C0DD97" stroke-width="1.5"/>
  <path d="M108 168 Q108 148 108 138" stroke="#3B6D11" stroke-width="2" fill="none" stroke-linecap="round"/>
  <ellipse cx="102" cy="150" rx="8" ry="5" fill="#66BB6A" transform="rotate(-30,102,150)"/>
  <ellipse cx="114" cy="145" rx="8" ry="5" fill="#81C784" transform="rotate(20,114,145)"/>
  <ellipse cx="108" cy="140" rx="7" ry="4" fill="#4CAF50" transform="rotate(-5,108,140)"/>

  <!-- Floating: lemon top right -->
  <circle cx="392" cy="148" r="32" fill="#EAF3DE" stroke="#C0DD97" stroke-width="1.5"/>
  <circle cx="392" cy="148" r="20" fill="#FFE066"/>
  <circle cx="392" cy="148" r="14" fill="#FFF3A3"/>
  <line x1="392" y1="128" x2="392" y2="168" stroke="#FFD700" stroke-width="1" opacity="0.5"/>
  <line x1="372" y1="148" x2="412" y2="148" stroke="#FFD700" stroke-width="1" opacity="0.5"/>

  <!-- Floating: avocado bottom right -->
  <circle cx="388" cy="355" r="30" fill="#EAF3DE" stroke="#C0DD97" stroke-width="1.5"/>
  <ellipse cx="388" cy="355" rx="16" ry="20" fill="#7BC47F"/>
  <ellipse cx="388" cy="355" rx="10" ry="14" fill="#C5E8A0"/>
  <ellipse cx="388" cy="355" rx="5" ry="7" fill="#8B6914"/>

  <!-- Floating: tomato bottom left -->
  <circle cx="112" cy="348" r="28" fill="#EAF3DE" stroke="#C0DD97" stroke-width="1.5"/>
  <circle cx="112" cy="350" r="16" fill="#E85D5D"/>
  <path d="M112 334 Q116 328 120 330 Q115 336 112 334Z" fill="#3B6D11"/>
  <path d="M112 334 Q108 327 104 330 Q109 336 112 334Z" fill="#4CAF50"/>
  <circle cx="107" cy="346" r="4" fill="#FF8A8A" opacity="0.5"/>
</svg>
